<?xml version="1.0" encoding="UTF-8" standalone="no"?>
<svg
   width="103.41249"
   height="31.999992"
   viewBox="0 0 27.361221 8.4666649"
   version="1.1"
   id="svg8"
   xmlns="http://www.w3.org/2000/svg"
   xmlns:svg="http://www.w3.org/2000/svg"
   xmlns:rdf="http://www.w3.org/1999/02/22-rdf-syntax-ns#"
   xmlns:cc="http://creativecommons.org/ns#"
   xmlns:dc="http://purl.org/dc/elements/1.1/">
  <defs
     id="defs2" />
  <metadata
     id="metadata5">
    <rdf:RDF>
      <cc:Work
         rdf:about="">
        <dc:format>image/svg+xml</dc:format>
        <dc:type
           rdf:resource="http://purl.org/dc/dcmitype/StillImage" />
      </cc:Work>
    </rdf:RDF>
  </metadata>
  <path
     id="path1943"
     style="fill:#13b99d;fill-opacity:1;fill-rule:evenodd;stroke-width:0.264586;stroke-linejoin:round"
     d="m 3.1762079,0.03491125 -0.218855,1.25995455 -0.08161,0.469702 -0.05052,0.29075 -0.290359,1.671364 -0.170861,0.983842 -0.337187,1.940803 -0.134072,0.771787 -0.1752,1.008713 0.524953,0.03484 0.156805,-0.902556 c 0.107381,0.016 0.216952,0.02416 0.328768,0.02416 0.551601,0 1.013741,-0.172932 1.386445,-0.518802 0.375685,-0.345868 0.563555,-0.784147 0.563555,-1.314877 0,-0.375686 -0.08944,-0.708159 -0.268338,-0.997375 -0.178898,-0.289221 -0.392118,-0.494939 -0.639594,-0.617187 -0.170698,-0.08638 -0.414807,-0.177133 -0.728781,-0.272028 l 0.266136,-1.532046 c 0.112099,0.09834 0.214138,0.216629 0.306099,0.355 v 0.433821 h 0.760323 v -1.887363 h -0.760323 v 0.415946 c -0.05515,-0.04165 -0.110952,-0.08041 -0.167299,-0.116649 l 0.20467,-1.17814655 0.0502,-0.288806 z M 2.8697209,4.8561238 c 0.291201,0.09445 0.50101,0.189718 0.627611,0.285762 0.172935,0.128209 0.2594,0.339878 0.2594,0.635059 0,0.304127 -0.1058659,0.550134 -0.3175619,0.737978 -0.211696,0.187842 -0.471092,0.281746 -0.7782,0.281746 -0.0431,0 -0.08541,-0.0023 -0.127336,-0.0058 z M 2.2532489,2.2794643e-6 2.0480609,1.1813898 c -0.0722,-0.0071 -0.145074,-0.01108 -0.218855,-0.01108 -0.524766,0 -0.96155495,0.156567 -1.31040595,0.469639 C 0.172931,1.9500378 0,2.3659398 0,2.8877258 c 0,0.336924 0.07896,0.629107 0.23699,0.876584 0.161008,0.244491 0.37571595,0.433848 0.64406295,0.568024 0.14863495,0.07266 0.34260795,0.148127 0.58033095,0.226302 L 1.1604019,6.2915303 C 1.0305049,6.1508043 0.91046795,5.9810293 0.80054495,5.7814093 V 5.2313253 H 0.022346 v 2.258563 h 0.77819895 v -0.514331 c 0.06903,0.06222 0.139534,0.11909 0.21121195,0.171767 l -0.21710595,1.249653 0.52495295,0.03485 0.1752,-1.008713 0.134072,-0.771787 0.337123,-1.940803 0.1365331,-0.7857775 0.03439,-0.198065 0.2902949,-1.671364 0.108941,-0.627092 0.02319,-0.13336 0.218854,-1.26001752 z M 1.8963069,1.9708578 c 0.0049,0 0.0097,3.76e-4 0.01457,3.76e-4 l -0.280838,1.616635 c -0.130076,-0.0389 -0.229749,-0.07257 -0.29729,-0.100715 -0.143118,-0.05963 -0.260884,-0.152051 -0.35331495,-0.277279 -0.09243,-0.128207 -0.13867,-0.275786 -0.13867,-0.442759 0,-0.21766 0.09099,-0.404043 0.27287095,-0.559087 0.18188,-0.158025 0.442763,-0.237053 0.782669,-0.237053 z" />
  <path
     d="M 17.922034,7.411761 16.508755,3.7667498 H 15.743973 V 3.0109132 h 2.178061 v 0.7558366 h -0.563522 l 0.93026,2.455351 0.934733,-2.455351 H 18.624203 V 3.0109132 h 2.115448 V 3.7667498 H 20.073262 L 18.691288,7.411761 Z"
     id="path2083"
     style="font-size:8.46667px;font-family:Rockwell;-inkscape-font-specification:Rockwell;fill:#ffffff;fill-opacity:1;stroke-width:2.64584;stroke-linejoin:round" />
  <path
     d="M 8.144481,6.5872724 V 1.9225525 H 7.2991961 V 1.1443538 h 2.4061541 q 0.9973468,0 1.5340358,0.1028654 0.541161,0.1028653 1.046543,0.4651303 0.505381,0.3622649 0.805033,0.9973466 0.304124,0.6306093 0.304124,1.4401149 0,0.9213156 -0.290706,1.6011214 -0.290707,0.6798059 -0.764782,1.0152363 -0.469603,0.3354305 -1.122575,0.4696027 -0.648498,0.1296998 -1.6547901,0.1296998 H 7.2991961 V 6.5872724 Z m 0.9392049,0 h 0.4919649 q 0.8229222,0 1.3014702,-0.1028657 0.48302,-0.1028657 0.813978,-0.3488477 0.330958,-0.2504548 0.536689,-0.7513643 0.20573,-0.5009095 0.20573,-1.1807153 0,-0.8095055 -0.339903,-1.3730288 Q 11.758185,2.2669279 11.230441,2.0969765 10.707169,1.9225525 9.6159024,1.9225525 H 9.0836859 Z"
     id="path2085"
     style="font-size:8.46667px;font-family:Rockwell;-inkscape-font-specification:Rockwell;fill:#ffffff;fill-opacity:1;stroke-width:2.64584;stroke-linejoin:round" />
  <path
     d="m 14.339902,1.56476 q 0,-0.2057306 0.143117,-0.3577925 0.14759,-0.1520618 0.37121,-0.1520618 0.210203,0 0.362265,0.1475894 0.152062,0.1475894 0.152062,0.3622649 0,0.2146756 -0.152062,0.3667374 -0.152062,0.1475894 -0.362265,0.1475894 -0.214676,0 -0.366737,-0.1520619 -0.14759,-0.1520617 -0.14759,-0.3622649 z m 0.120755,5.0448745 V 3.7920184 H 13.785324 V 3.0361818 h 1.52509 v 3.5734527 h 0.666389 V 7.3654712 H 13.785324 V 6.6096345 Z"
     id="path2087"
     style="font-size:8.46667px;font-family:Rockwell;-inkscape-font-specification:Rockwell;fill:#ffffff;fill-opacity:1;stroke-width:2.64584;stroke-linejoin:round" />
  <path
     d="M 21.918566,7.411761 20.505286,3.7667498 H 19.740504 V 3.0109132 h 2.178062 v 0.7558366 h -0.563523 l 0.93026,2.455351 0.934733,-2.455351 H 22.620734 V 3.0109132 h 2.115449 v 0.7558366 h -0.66639 L 22.68782,7.411761 Z"
     id="path2089"
     style="font-size:8.46667px;font-family:Rockwell;-inkscape-font-specification:Rockwell;fill:#ffffff;fill-opacity:1;stroke-width:2.64584;stroke-linejoin:round" />
  <path
     d="m 25.72432,1.5647601 q 0,-0.2057306 0.143117,-0.3577925 0.14759,-0.1520618 0.37121,-0.1520618 0.210203,0 0.362265,0.1475894 0.152061,0.1475894 0.152061,0.3622649 0,0.2146756 -0.152061,0.3667374 -0.152062,0.1475894 -0.362265,0.1475894 -0.214676,0 -0.366738,-0.1520619 Q 25.72432,1.7749633 25.72432,1.5647601 Z m 0.120754,5.0448745 V 3.7920186 H 25.169742 V 3.0361819 h 1.525091 v 3.5734527 h 0.666388 V 7.3654713 H 25.169742 V 6.6096346 Z"
     id="path2091"
     style="font-size:8.46667px;font-family:Rockwell;-inkscape-font-specification:Rockwell;fill:#ffffff;fill-opacity:1;stroke-width:2.64584;stroke-linejoin:round" />
</svg>
